<?xml version="1.0" encoding="utf-8"?>
<!-- Generator: Adobe Illustrator 23.0.1, SVG Export Plug-In . SVG Version: 6.00 Build 0)  -->
<svg version="1.1" id="Layer_1" xmlns="http://www.w3.org/2000/svg" xmlns:xlink="http://www.w3.org/1999/xlink" x="0px" y="0px"
	 viewBox="0 0 512 512" style="enable-background:new 0 0 512 512;" xml:space="preserve">
<style type="text/css">
	.st0{fill:#FFFFFF;}
	.st1{fill:#FFF7EB;}
	.st2{fill:#FF903F;}
</style>
<title>LEGAL DOCUMENT</title>
<rect x="119.8" y="134.9" class="st0" width="272.5" height="156"/>
<polygon class="st1" points="345.5,178.7 345.5,156.9 166.5,156.9 166.5,178.7 144.7,178.7 144.7,247 166.5,247 166.5,268.9 
	345.5,268.9 345.5,247 367.3,247 367.3,178.7 "/>
<circle class="st1" cx="256" cy="279.1" r="40"/>
<circle class="st0" cx="256" cy="279.1" r="20.5"/>
<polygon class="st1" points="271.5,377.1 256,358.3 240.5,377.1 240.5,299.6 271.5,299.6 "/>
<path class="st2" d="M392.2,129.9H119.7c-2.8,0-5,2.2-5,5v156c0,2.8,2.2,5,5,5h94.5c8.2,20.8,30.5,32.3,52.2,27v40.3l-6.6-8
	c-1.9-2.1-5.2-2.3-7.3-0.4c-0.1,0.1-0.3,0.3-0.4,0.4l-6.6,8V340c0-2.8-2.2-5-5-5s-5,2.2-5,5v37.1c0,2.8,2.2,5,5,5
	c1.5,0,2.9-0.7,3.9-1.8l11.6-14.1l11.6,14.1c1.8,2.1,4.9,2.4,7,0.7c1.2-1,1.8-2.4,1.8-3.9v-58c16.8-8.5,26.5-26.6,24.2-45.3h44.8
	c2.8,0,5-2.2,5-5V252h16.8c2.8,0,5-2.2,5-5v-68.3c0-2.8-2.2-5-5-5h-16.8v-16.8c0-2.8-2.2-5-5-5h-179c-2.8,0-5,2.2-5,5v16.8h-16.8
	c-2.8,0-5,2.2-5,5V247c0,2.8,2.2,5,5,5h16.8v16.8c0,2.8,2.2,5,5,5h27c2.8,0,5-2.2,5-5s-2.2-5-5-5h-22V247c0-2.8-2.2-5-5-5h-16.8
	v-58.3h16.8c2.8,0,5-2.2,5-5v-16.8h169v16.8c0,2.8,2.2,5,5,5h16.8V242h-16.8c-2.8,0-5,2.2-5,5v16.8h-42.2
	c-8.3-23.4-33.9-35.7-57.3-27.4c-20.4,7.2-32.8,28-29.4,49.4h-86.8v-146h262.5v146H317c-2.8,0-5,2.2-5,5s2.2,5,5,5h75.2
	c2.8,0,5-2.2,5-5v-156C397.2,132.1,395,129.9,392.2,129.9z M256,244.1c19.3,0,35,15.7,35,35c0,19.3-15.7,35-35,35s-35-15.7-35-35
	C221,259.8,236.7,244.2,256,244.1z"/>
<path class="st2" d="M256,304.6c14.1,0,25.5-11.4,25.5-25.5c0-14.1-11.4-25.5-25.5-25.5c-14.1,0-25.5,11.4-25.5,25.5c0,0,0,0,0,0
	C230.6,293.2,241.9,304.6,256,304.6z M256,263.7c8.5,0,15.5,6.9,15.5,15.5c0,8.5-6.9,15.5-15.5,15.5c-8.5,0-15.5-6.9-15.5-15.5
	c0,0,0,0,0,0C240.6,270.6,247.5,263.7,256,263.7z"/>
<path class="st2" d="M280.6,183.9c2.8,0,5-2.2,5-5s-2.2-5-5-5h-49.1c-2.8,0-5,2.2-5,5s2.2,5,5,5H280.6z"/>
<path class="st2" d="M207.2,201.9c0,2.8,2.2,5,5,5h87.6c2.8,0,5-2.2,5-5s-2.2-5-5-5h-87.6C209.5,196.9,207.2,199.1,207.2,201.9
	C207.2,201.9,207.2,201.9,207.2,201.9z"/>
</svg>
