<?xml version="1.0" encoding="utf-8"?>
<!-- Generator: Adobe Illustrator 23.0.1, SVG Export Plug-In . SVG Version: 6.00 Build 0)  -->
<svg version="1.1" id="Layer_1" xmlns="http://www.w3.org/2000/svg" xmlns:xlink="http://www.w3.org/1999/xlink" x="0px" y="0px"
	 viewBox="0 0 512 512" style="enable-background:new 0 0 512 512;" xml:space="preserve">
<style type="text/css">
	.st0{fill:#FFFFFF;}
	.st1{fill:#FFF7EB;}
	.st2{fill:#FCF5EC;}
	.st3{fill:#FF903F;}
</style>
<title>DOCUMENT SECURITY</title>
<polygon class="st0" points="363.2,242.7 241.5,260.6 119.8,242.7 119.8,174.8 363.2,174.8 "/>
<polygon class="st1" points="241.5,260.6 127.6,243.9 127.6,331.2 355.4,331.2 355.4,243.9 "/>
<circle class="st2" cx="241.5" cy="233.6" r="10.3"/>
<rect x="318.6" y="291.8" class="st0" width="73.7" height="73.7"/>
<path class="st3" d="M307.4,245.9l-65.9,9.7l-116.7-17.1v-58.6h233.5v30.9c0,2.8,2.2,5,5,5s5-2.2,5-5v-35.9c0-2.8-2.2-5-5-5h-83.5
	c-2-16.2-15.8-28.3-32.1-28.3h-12.3c-16.3,0-30,12.1-32.1,28.3h-83.5c-2.8,0-5,2.2-5,5v67.9c0,2.5,1.8,4.6,4.3,4.9l3.5,0.5v83
	c0,2.8,2.2,5,5,5h167.8c2.8,0,5-2.2,5-5s-2.2-5-5-5H132.6v-76.5l108.2,15.9c0.5,0.1,1,0.1,1.5,0l66.6-9.8c2.7-0.5,4.6-3,4.1-5.8
	C312.5,247.3,310.1,245.5,307.4,245.9L307.4,245.9z M235.4,151.5h12.3c10.8,0,20,7.7,22,18.3h-56.2
	C215.3,159.2,224.6,151.5,235.4,151.5z"/>
<path class="st3" d="M226.2,233.6c0,8.4,6.8,15.3,15.3,15.3s15.3-6.8,15.3-15.3s-6.8-15.3-15.3-15.3l0,0
	C233.1,218.4,226.3,225.2,226.2,233.6z M246.7,233.6c0,2.9-2.4,5.3-5.3,5.3s-5.3-2.4-5.3-5.3s2.4-5.3,5.3-5.3l0,0
	C244.4,228.4,246.7,230.7,246.7,233.6L246.7,233.6z"/>
<path class="st3" d="M392.2,286.8h-8.9v-27c0.2-15.4-12.2-28-27.6-28.2s-28,12.2-28.2,27.6c0,0.2,0,0.4,0,0.7v27h-9
	c-2.8,0-5,2.2-5,5v73.7c0,2.8,2.2,5,5,5h73.7c2.8,0,5-2.2,5-5v-73.7C397.2,289.1,395,286.8,392.2,286.8z M337.5,259.8
	c-0.1-9.9,7.7-18,17.6-18.2s18,7.7,18.2,17.6c0,0.2,0,0.4,0,0.5v27h-35.8V259.8z M387.2,360.5h-63.7v-63.7h63.7V360.5z"/>
<path class="st3" d="M355.4,310.8c-2.8,0-5,2.2-5,5v23.5c0,2.8,2.2,5,5,5s5-2.2,5-5v-23.5C360.4,313.1,358.2,310.8,355.4,310.8z"/>
</svg>
