<?xml version="1.0" encoding="utf-8"?>
<!-- Generator: Adobe Illustrator 23.0.1, SVG Export Plug-In . SVG Version: 6.00 Build 0)  -->
<svg version="1.1" id="Capa_1" xmlns="http://www.w3.org/2000/svg" xmlns:xlink="http://www.w3.org/1999/xlink" x="0px" y="0px"
	 viewBox="0 0 512 512" style="enable-background:new 0 0 512 512;" xml:space="preserve">
<style type="text/css">
	.st0{fill:#FFCA28;}
	.st1{fill:#FF903F;}
	.st2{fill:#FFF7EB;}
	.st3{fill:#FFFFFF;}
	.st4{display:none;fill:#FFF7EB;}
	.st5{fill:#FF903F;stroke:#FFFFFF;stroke-width:2.8346;stroke-miterlimit:10;}
	.st6{display:none;fill:url(#SVGID_1_);}
	.st7{display:none;fill:#FF903F;stroke:#FF903F;stroke-width:7.0866;stroke-miterlimit:10;}
	.st8{fill:#FF903F;stroke:#FFF7EB;stroke-width:2.8346;stroke-miterlimit:10;}
</style>
<circle class="st0" cx="394.7" cy="138.7" r="53.3"/>
<g>
	<g>
		<path class="st1" d="M509.9,352c0,3.4-2,6.5-5.1,7.8c-7.7,3.4-19.2,9-33.8,16.2l-1,0.5c-56.2,27.6-141.1,69.4-182,69.4
			c-46.7,0-158.4-52.1-180.4-62.6l-2-1l-0.8,2.1c-4.7,11.4-15.4,18.8-27.3,18.8H10.7c-4.7,0-8.5-3.8-8.5-8.5V224
			c0-2.6,1.1-5,3.1-6.6c2-1.6,4.6-2.3,7.1-1.8L99.2,233c10.9,2.2,19.7,10.3,22.8,21.1l0.6,2l2-0.6c13.4-3.7,34.2-8.1,56.7-8.1
			c20.1,0,35.4,7.4,51.6,15.2c13.4,6.5,27.3,13.2,46.1,17c39.4,8,78.2,18.3,81,47.8l0.2,2.5l2.5-0.7c23.1-6.6,65-17.8,85.3-17.8
			C484.4,311.5,509.9,328.1,509.9,352z"/>
	</g>
</g>
<path class="st2" d="M77.5,384H21.3V237l74.1,14.8c5.5,1.1,9.3,6.4,8.5,12l-15.9,111C87.3,380.1,82.8,384,77.5,384z"/>
<path class="st3" d="M461.5,359.3c-51.3,25.2-137.1,67.4-173.5,67.4c-38.8,0-140.7-45.4-176.7-62.9c0,0-0.1,0-0.1,0l12.6-87.9
	c7.8-2.4,31.5-9.1,57.6-9.1c15.8,0,27.9,5.9,43.3,13.3c13.8,6.7,29.5,14.2,50.6,18.5c46.4,9.4,66.1,19,66.1,32.2
	c0,2.6-0.8,4.2-2.8,5.7c-6.8,5.1-33.3,13.6-132.8-15.9c-5.7-1.6-11.6,1.6-13.3,7.2c-1.7,5.6,1.5,11.6,7.2,13.3
	c49.1,14.6,86.7,21.8,113.3,21.8c17.4,0,30.1-3.1,38.3-9.2c0.7-0.5,3.2-1.7,3.9-1.9c18.9-5.8,72.3-20.9,92.9-20.9
	c17.4,0,35.7,5.3,41.1,15.2C481.6,349.4,472.3,354,461.5,359.3z"/>
<path class="st2" d="M123.4,278.1l-12.2,85.6c0,0,0.1,0,0.1,0c31.3,15.2,112.3,51.5,158.4,60.7L123.4,278.1z"/>
<path class="st4" d="M346.5,105.3c40.8,18.1,59.3,66,41.3,106.8s-66,59.3-106.8,41.3c-40.8-18.1-59.3-66-41.3-106.8
	S305.6,87.2,346.5,105.3z"/>
<path class="st5" d="M328.7,218.2c-5.9-0.3-10.5-5.2-10.2-11.1l1.8-42.6c0.3-5.9,5.2-10.5,11.1-10.2c5.9,0.3,10.5,5.2,10.2,11.1
	l-1.8,42.6C339.6,213.9,334.6,218.4,328.7,218.2z"/>
<path class="st1" d="M410,148.7c-1.7-3.9-6.2-5.6-10.1-3.9c-3.9,1.7-5.6,6.2-3.9,10.1c11.2,25.3,6.2,54.6-12.5,74.7
	c-25.8,27.7-69.4,29.3-97.1,3.4s-29.3-69.4-3.4-97.1c18.8-20.1,47.7-27.1,73.7-17.8c4,1.4,8.3-0.6,9.8-4.6c1.4-4-0.6-8.3-4.6-9.8
	c-31.7-11.4-67.1-2.9-90,21.7c-31.6,33.9-29.7,87.1,4.2,118.7c33.9,31.6,87.1,29.7,118.7-4.2C417.6,215.4,423.6,179.6,410,148.7z"/>
<linearGradient id="SVGID_1_" gradientUnits="userSpaceOnUse" x1="-277.7436" y1="129.0309" x2="-255.647" y2="139.3347" gradientTransform="matrix(21.3333 0 0 21.3333 5957.6587 -2600.6543)">
	<stop  offset="0" style="stop-color:#FFFFFF;stop-opacity:0.2"/>
	<stop  offset="1" style="stop-color:#FFFFFF;stop-opacity:0"/>
</linearGradient>
<path class="st6" d="M330.7,256c28.9,0,54.9-17,67.1-43c39.7-1.7,71.5-34.3,71.5-74.4c0-41.2-33.5-74.7-74.7-74.7
	c-29.8,0-55.4,17.7-67.4,43c-39.6,1.8-71.3,34.3-71.3,74.3C256,222.5,289.5,256,330.7,256z M448,309.3c-20.8,0-64,11.6-85.9,17.9
	c-2.9-30.6-42.1-41.4-82.7-49.7c-18.5-3.8-32.3-10.4-45.6-16.8c-16.4-7.9-31.9-15.4-52.5-15.4c-23.6,0-45.1,4.8-57.3,8.2
	c-3.2-11.2-12.3-20.2-24.4-22.6l-86.9-17.4c-3.1-0.6-6.4,0.2-8.9,2.2c-2.5,2-3.9,5.1-3.9,8.3v170.7c0,5.9,4.8,10.7,10.7,10.7h66.8
	c13.2,0,24.4-8.4,29.2-20.1C130.6,396.6,241.1,448,288,448c41.4,0,126.6-41.9,182.9-69.6c14.7-7.2,26.8-13.2,34.7-16.6
	c3.9-1.7,6.4-5.5,6.4-9.8C512,326.9,485.7,309.3,448,309.3z"/>
<path class="st2" d="M397.7,57.7c44.7,0,81,36.3,81,81s-36.3,81-81,81c-44.7,0-81-36.3-81-81S353,57.7,397.7,57.7z"/>
<path class="st7" d="M394.7,51.9c-47.8,0-86.8,38.9-86.8,86.8s38.9,86.8,86.8,86.8c47.8,0,86.8-38.9,86.8-86.8
	S442.5,51.9,394.7,51.9z M394.7,213.9c-41.5,0-75.2-33.7-75.2-75.2s33.7-75.2,75.2-75.2s75.2,33.7,75.2,75.2
	S436.1,213.9,394.7,213.9z"/>
<path class="st8" d="M397.7,171.7c-5.9,0-10.7-4.8-10.7-10.7v-42.7c0-5.9,4.8-10.7,10.7-10.7s10.7,4.8,10.7,10.7V161
	C408.3,166.9,403.6,171.7,397.7,171.7z"/>
<path class="st1" d="M429.9,63c-3.9-1.7-8.4,0.1-10,4c-1.7,3.9,0.1,8.4,4,10c25.4,10.9,41.8,35.7,41.8,63.2
	c0,37.9-30.8,68.7-68.7,68.7s-68.7-30.8-68.7-68.7c0-27.5,16.4-52.4,41.8-63.2c3.9-1.7,5.7-6.1,4-10c-1.7-3.9-6.1-5.7-10-4
	c-31,13.3-51.1,43.6-51.1,77.3c0,46.3,37.7,84,84,84c46.3,0,84-37.7,84-84C480.9,106.6,460.9,76.2,429.9,63z"/>
</svg>
