<?xml version="1.0" encoding="utf-8"?>
<!-- Generator: Adobe Illustrator 23.0.1, SVG Export Plug-In . SVG Version: 6.00 Build 0)  -->
<svg version="1.1" id="Layer_1" xmlns="http://www.w3.org/2000/svg" xmlns:xlink="http://www.w3.org/1999/xlink" x="0px" y="0px"
	 viewBox="0 0 512 512" style="enable-background:new 0 0 512 512;" xml:space="preserve">
<style type="text/css">
	.st0{fill:#FFFFFF;}
	.st1{fill:#FFF7EB;}
	.st2{fill:#FF903F;}
	.st3{fill:#FF903F;stroke:#FFFFFF;stroke-width:1.4173;stroke-miterlimit:10;}
</style>
<title>PROTECT AND COPYRIGHT</title>
<path class="st0" d="M249.9,390.4c-4.5-1.4-109.5-35.2-108-197.3l0.1-12.4l114-61l114,61l0.1,12.4c1.4,162.1-103.5,195.9-108,197.3
	l-6.1,1.8L249.9,390.4z"/>
<path class="st1" d="M256,142.5l-93.2,49.9C161.5,340.7,256,369.5,256,369.5s94.5-28.7,93.2-177.1L256,142.5z"/>
<circle class="st0" cx="256" cy="244" r="52"/>
<path class="st2" d="M256,301c31.5,0,57-25.5,57-57s-25.5-57-57-57s-57,25.5-57,57S224.5,301,256,301z M256,197c26,0,47,21,47,47
	s-21,47-47,47s-47-21-47-47l0,0C209,218.1,230.1,197,256,197z"/>
<path class="st2" d="M375,180.7c0-1.8-1-3.5-2.6-4.4l-114-61c-1.5-0.8-3.2-0.8-4.7,0l-114,61c-1.6,0.9-2.6,2.5-2.6,4.4l-0.1,12.4
	c-1.5,165.8,106.9,200.7,111.6,202.1l6.1,1.9c1,0.3,2,0.3,2.9,0l6.1-1.8c19.9-7.1,37.9-18.7,52.7-33.8c2-1.9,2-5.1,0.1-7.1
	s-5.1-2-7.1-0.1c-13.7,13.9-30.3,24.7-48.6,31.4L256,387l-4.6-1.4c-4.3-1.3-105.9-34-104.5-192.4l0.1-9.4l109-58.3l109,58.3l0.1,9.4
	c0.5,57.5-12.4,104.8-38.4,140.7c-1.6,2.2-1.1,5.4,1.1,7s5.4,1.1,7-1.1c27.3-37.6,40.8-87,40.3-146.7L375,180.7z"/>
<path class="st2" d="M205.1,164.1L160.4,188c-1.6,0.9-2.6,2.5-2.6,4.4c-1.3,150.3,95.8,181.6,96.8,181.9c0.9,0.3,2,0.3,2.9,0
	c1-0.3,25.2-7.9,49.3-34.3c22-24.1,48.1-69.3,47.4-147.6c0-1.8-1-3.5-2.6-4.4l-93.2-49.9c-1.5-0.8-3.2-0.8-4.7,0l-25,13.4
	c-2.4,1.3-3.4,4.3-2.1,6.8c1.3,2.4,4.3,3.4,6.8,2l22.6-12.1l88.2,47.2c0,131.7-76.1,164.4-88.2,168.8
	c-11.5-4.3-88.3-38.2-88.3-168.8l42.1-22.5c2.4-1.3,3.4-4.3,2.1-6.8S207.6,162.7,205.1,164.1L205.1,164.1L205.1,164.1z"/>
<g>
	<g>
		<g>
			<path class="st3" d="M255.2,261.8c-2.2,2.2-5.8,2.2-8,0l-12.5-12.5c-2.2-2.2-2.2-5.8,0-8s5.8-2.2,8,0l7.4,7.4
				c0.6,0.6,1.5,0.6,2,0l20.1-20.1c2.2-2.2,5.8-2.2,8,0c1.1,1.1,1.7,2.5,1.7,4s-0.6,3-1.7,4L255.2,261.8z"/>
		</g>
	</g>
</g>
</svg>
