<?xml version="1.0" encoding="utf-8"?>
<!-- Generator: Adobe Illustrator 23.0.1, SVG Export Plug-In . SVG Version: 6.00 Build 0)  -->
<svg version="1.1" id="Layer_1" xmlns="http://www.w3.org/2000/svg" xmlns:xlink="http://www.w3.org/1999/xlink" x="0px" y="0px"
	 viewBox="0 0 512 512" style="enable-background:new 0 0 512 512;" xml:space="preserve">
<style type="text/css">
	.st0{fill:#FFF7EB;}
	.st1{fill:#FCF5EC;}
	.st2{fill:#FFFFFF;}
	.st3{fill:#FF903F;}
</style>
<title>DOCUMENT</title>
<rect x="119.6" y="243.1" class="st0" width="272.7" height="149.2"/>
<polygon class="st1" points="255.9,317.7 392.3,243.1 119.6,243.1 "/>
<polygon class="st2" points="352,262.2 255.9,317.7 160,262.2 160,160 200.3,119.8 352,119.8 "/>
<polygon class="st1" points="200.3,119.8 160,160 200.3,160 "/>
<polygon class="st2" points="119.6,392.3 234.1,305.8 119.6,243.1 "/>
<polygon class="st2" points="393.7,392.3 279.1,305.8 393.7,243.1 "/>
<path class="st3" d="M223.3,201.7h65.3c2.8,0,5-2.2,5-5s-2.2-5-5-5h-65.3c-2.8,0-5,2.2-5,5S220.6,201.7,223.3,201.7z"/>
<path class="st3" d="M201,237h110c2.8,0,5-2.2,5-5s-2.2-5-5-5H201c-2.8,0-5,2.2-5,5S198.2,237,201,237z"/>
<path class="st3" d="M201,261h110c2.8,0,5-2.2,5-5c0-2.8-2.2-5-5-5H201c-2.8,0-5,2.2-5,5C196,258.8,198.2,261,201,261z"/>
<path class="st3" d="M392.2,238.1H357V119.8c0-2.8-2.2-5-5-5H200.2c-1.3,0-2.6,0.5-3.5,1.5l-40.2,40.2c-0.9,0.9-1.5,2.2-1.5,3.5
	v78.1h-35.4c-2.8,0-5,2.2-5,5v149.2c0,2.8,2.2,5,5,5h272.6c2.8,0,5-2.2,5-5V243.1C397.2,240.3,395,238.1,392.2,238.1z M217,318.7
	c-1.7-2.2-4.8-2.6-7-1c0,0,0,0,0,0l-85.4,64.5V251.5l128.9,70.5c1.5,0.8,3.3,0.8,4.8,0l19.8-10.8l99.4,76h-243l81.5-61.5
	C218.2,324.1,218.6,320.9,217,318.7z M287.7,306l99.6-54.5v130.6L287.7,306z M372.7,248.1l-15.7,8.6v-8.6H372.7z M195.2,131.8V155
	H186c-2.8,0-5,2.2-5,5s2.2,5,5,5h14.2c2.8,0,5-2.2,5-5v-35.2H347v137.4L255.9,312L165,262.2V162.1L195.2,131.8z M155,256.8
	l-15.8-8.7H155V256.8z"/>
</svg>
