<?xml version="1.0" encoding="utf-8"?>
<!-- Generator: Adobe Illustrator 23.0.1, SVG Export Plug-In . SVG Version: 6.00 Build 0)  -->
<svg version="1.1" id="Layer_1" xmlns="http://www.w3.org/2000/svg" xmlns:xlink="http://www.w3.org/1999/xlink" x="0px" y="0px"
	 viewBox="0 0 512 512" style="enable-background:new 0 0 512 512;" xml:space="preserve">
<style type="text/css">
	.st0{fill:#FFF7EB;}
	.st1{fill:#FFFFFF;}
	.st2{fill:#FF903F;}
	.st3{display:none;}
	.st4{display:inline;}
	.st5{fill:#DD9D5C;}
</style>
<title>QUOTE COPYRIGHT</title>
<path class="st0" d="M334.3,319c29.1-41.1,19.4-98-21.7-127.2s-98-19.4-127.2,21.7s-19.4,98,21.7,127.2c29.7,21,69.1,22.4,100.1,3.5
	l39.9,13.3L334.3,319z"/>
<path class="st1" d="M132.6,362.5c-22.5-31.8-15-75.8,16.8-98.3s75.8-15,98.3,16.8s15,75.8-16.8,98.3c-23,16.3-53.4,17.3-77.4,2.7
	l-30.8,10.3L132.6,362.5z"/>
<path class="st2" d="M397.2,173.3c0-32.4-26.3-58.6-58.6-58.6S280,140.9,280,173.3s26.3,58.6,58.6,58.6c12.3,27.6,9.1,59.6-8.4,84.2
	c-0.9,1.3-1.2,3-0.7,4.5l9.7,29l-30.4-10.1c-1.4-0.5-2.9-0.3-4.2,0.5c-9.9,6.1-21,10.1-32.5,11.7c-2.7,0.4-4.7,2.9-4.3,5.6
	s2.9,4.7,5.6,4.3h0.1c12.1-1.7,23.7-5.7,34.3-11.9l37.7,12.6c0.5,0.2,1.1,0.3,1.6,0.3c2.8,0,5-2.2,5-5c0-0.5-0.1-1.1-0.3-1.6
	l-12-36.1c17.6-26.3,21-59.6,9.2-88.9C377,225.9,397.2,201.6,397.2,173.3z M338.6,221.9c-26.9,0-48.6-21.8-48.6-48.6
	c0-26.9,21.8-48.6,48.6-48.6c26.9,0,48.6,21.8,48.6,48.6S365.5,221.9,338.6,221.9z"/>
<path class="st2" d="M260.2,180.9c2.8,0,5-2.2,5-5s-2.2-5-5-5c-46.7,0.1-86.6,33.9-94.4,80c-39.3,13.3-60.4,55.9-47.1,95.1
	c2.1,6.1,4.9,11.9,8.4,17.2l-9.1,27.4c-0.9,2.6,0.5,5.5,3.2,6.3c0.5,0.2,1,0.3,1.6,0.3c0.5,0,1.1-0.1,1.6-0.3l28.7-9.6
	c36.1,20.6,82.1,8.1,102.7-28s8.1-82.1-28-102.7c-15.5-8.9-33.6-11.9-51.2-8.6C185.3,208.9,220,181,260.2,180.9z M255.2,322
	c0.1,36-29,65.2-65,65.2c-12,0-23.8-3.3-34.1-9.6c-1.3-0.8-2.8-0.9-4.2-0.5l-21.3,7.1l6.8-20.3c0.5-1.5,0.3-3.2-0.7-4.5
	C116,330,123,289.3,152.4,268.5s70.1-13.7,90.9,15.7C251,295.5,255.2,308.6,255.2,322z"/>
<g class="st3">
	<g class="st4">
		<g>
			<g>
				<g>
					<path class="st5" d="M331.3,160.4l-1-0.7l0,0h-0.1l-0.7-0.3v0.1c-0.7-0.3-1.4-0.5-2.2-0.5c-3.5,0-6.3,2.9-6.3,6.5
						s2.8,6.5,6.3,6.5c1.1,0,2.1-0.3,3-0.9c-0.3,3.5-2.1,8.6-8.5,13.7c-0.9,0.7-1.1,2.1-0.4,3c0.4,0.5,1,0.8,1.6,0.8
						c0.4,0,0.9-0.1,1.3-0.4c7.9-6.4,9.9-12.9,10.1-17.3c0.5-5.6-1.2-8.5-2.8-10.1L331.3,160.4z"/>
					<path class="st5" d="M352.4,160.9l-0.4-0.4l-1-0.7l0,0h-0.1l-0.7-0.3v0.1c-0.7-0.3-1.4-0.5-2.2-0.5c-3.5,0-6.3,2.9-6.3,6.5
						s2.8,6.5,6.3,6.5c1.1,0,2.1-0.3,3-0.9c-0.3,3.5-2.1,8.6-8.5,13.7c-0.9,0.7-1.1,2.1-0.4,3c0.4,0.5,1,0.8,1.6,0.8
						c0.4,0,0.9-0.1,1.3-0.4c7.9-6.4,9.9-12.9,10.1-17.3C355.6,165.3,353.9,162.4,352.4,160.9z"/>
				</g>
			</g>
		</g>
	</g>
</g>
<g class="st3">
	<g class="st4">
		<g>
			<path class="st5" d="M345.9,173c0-3.9-3.1-7-7-7s-7,3.1-7,7s3.1,7,7,7S345.9,176.9,345.9,173z M338.9,177.1
				c-2.3,0-4.1-1.8-4.1-4.1s1.8-4.1,4.1-4.1c2.3,0,4.1,1.8,4.1,4.1C343.1,175.3,341.2,177.1,338.9,177.1z"/>
			<path class="st5" d="M317.1,166c-3.9,0-7,3.1-7,7s3.1,7,7,7s7-3.1,7-7S321,166,317.1,166z M317.1,177.1c-2.3,0-4.1-1.8-4.1-4.1
				s1.8-4.1,4.1-4.1c2.3,0,4.1,1.8,4.1,4.1S319.4,177.1,317.1,177.1z"/>
			<path class="st5" d="M360.8,166c-3.9,0-7,3.1-7,7s3.1,7,7,7s7-3.1,7-7S364.6,166,360.8,166z M360.8,177.1c-2.3,0-4.1-1.8-4.1-4.1
				s1.8-4.1,4.1-4.1c2.3,0,4.1,1.8,4.1,4.1S363,177.1,360.8,177.1z"/>
		</g>
	</g>
</g>
<circle class="st2" cx="338.2" cy="173.5" r="6.5"/>
<circle class="st2" cx="318.5" cy="173.5" r="6.5"/>
<circle class="st2" cx="359.5" cy="173.5" r="6.5"/>
</svg>
