<?xml version="1.0" encoding="utf-8"?>
<!-- Generator: Adobe Illustrator 23.0.1, SVG Export Plug-In . SVG Version: 6.00 Build 0)  -->
<svg version="1.1" id="Capa_1" xmlns="http://www.w3.org/2000/svg" xmlns:xlink="http://www.w3.org/1999/xlink" x="0px" y="0px"
	 viewBox="0 0 870.3 870.3" style="enable-background:new 0 0 870.3 870.3;" xml:space="preserve">
<style type="text/css">
	.st0{fill:url(#SVGID_1_);}
	.st1{fill:url(#SVGID_2_);}
</style>
<g>
	<linearGradient id="SVGID_1_" gradientUnits="userSpaceOnUse" x1="432.8429" y1="427.364" x2="436.9297" y2="434.4426">
		<stop  offset="0" style="stop-color:#1E97E0"/>
		<stop  offset="0.1205" style="stop-color:#32A3E8"/>
		<stop  offset="0.2921" style="stop-color:#48B0F0"/>
		<stop  offset="0.4804" style="stop-color:#58B9F6"/>
		<stop  offset="0.6961" style="stop-color:#61BEFA"/>
		<stop  offset="1" style="stop-color:#64C0FB"/>
	</linearGradient>
	<path class="st0" d="M437.6,432.3c0.5,0.2,1,0.5,1.5,0.9v-2.6c0-2.2-1.8-3.9-3.9-3.9h-0.1c-2.2,0-3.9,1.8-3.9,3.9v2.6
		c0.5-0.4,1-0.7,1.5-0.9c0.1-0.1,0.3-0.1,0.4-0.2v-1.5c0-1.1,0.9-2,2-2h0.1c1.1,0,2,0.9,2,2v1.5
		C437.3,432.2,437.4,432.2,437.6,432.3z"/>
	<linearGradient id="SVGID_2_" gradientUnits="userSpaceOnUse" x1="432.3856" y1="433.3249" x2="437.9145" y2="442.9012">
		<stop  offset="0" style="stop-color:#1E97E0"/>
		<stop  offset="0.1205" style="stop-color:#32A3E8"/>
		<stop  offset="0.2921" style="stop-color:#48B0F0"/>
		<stop  offset="0.4804" style="stop-color:#58B9F6"/>
		<stop  offset="0.6961" style="stop-color:#61BEFA"/>
		<stop  offset="1" style="stop-color:#64C0FB"/>
	</linearGradient>
	<path class="st1" d="M429.7,438.1c0,3.1,2.5,5.5,5.5,5.5c3,0,5.5-2.5,5.5-5.5c0-1.5-0.6-2.9-1.6-3.9c-0.5-0.6-1.2-1-1.9-1.3
		c-0.6-0.2-1.3-0.4-2-0.4s-1.4,0.1-2,0.4c-0.7,0.3-1.4,0.7-1.9,1.3C430.2,435.2,429.7,436.6,429.7,438.1z M433.7,437
		c0-0.8,0.6-1.4,1.4-1.4c0.8,0,1.5,0.6,1.5,1.4c0,0.1,0,0.2,0,0.2c-0.1,0.4-0.3,0.8-0.6,1c-0.1,0.1-0.2,0.3-0.2,0.4l0.4,2
		c0,0.1-0.1,0.2-0.2,0.2h-1.6c-0.1,0-0.2-0.1-0.2-0.2l0.4-2c0-0.2,0-0.3-0.2-0.4c-0.3-0.2-0.6-0.6-0.6-1
		C433.7,437.2,433.7,437.1,433.7,437z"/>
</g>
</svg>
